<?xml version="1.0" encoding="utf-8"?>
<!-- Generator: Adobe Illustrator 27.5.0, SVG Export Plug-In . SVG Version: 6.00 Build 0)  -->
<svg version="1.1" xmlns="http://www.w3.org/2000/svg" xmlns:xlink="http://www.w3.org/1999/xlink" x="0px" y="0px"
	 viewBox="0 0 750 500" style="enable-background:new 0 0 750 500;" xml:space="preserve">
<g id="BACKGROUND">
	<rect style="fill:#F3F4F6;" width="750" height="500"/>
</g>
<g id="OBJECTS">
	<path style="fill:#E8D9EB;" d="M675.066,293.336c0,0-50.697,58.388-170.192,61.78s-248.269-66.214-327.136-49.327
		S31.923,259.935,49.496,186.17c16-67.164,169.358-86.678,266.276-58.881s213.116,18.119,258.711-2.149s93.838,2.77,114.566,35.472
		C709.778,193.313,710.243,260.32,675.066,293.336z"/>
	<g>
		<g>
			<path style="fill:#D55B5D;" d="M232.934,261.096c0,0-6.703,12.355-4.515,13.515c2.188,1.16,7.406-9.007,7.406-9.007
				L232.934,261.096z"/>
			<path style="fill:#D55B5D;" d="M230.783,256.846c0,0-6.703,12.355-4.515,13.515s7.406-9.007,7.406-9.007L230.783,256.846z"/>
			<path style="fill:#E38680;" d="M218.803,148.861l5.096,39.469c0,0,7.814,41.13,10.205,56.061l-12.779,2.051
				c0,0-16.496-48.592-18.028-56.587c-1.532-7.995-2.441-30.117-2.441-30.117L218.803,148.861z"/>
			<path style="fill:#E38680;" d="M222.002,243.579c0,0-2.32,4.247-2.71,9.139c-0.389,4.892,0.89,16.995,1.341,17.381
				c0.075,0.064,0.209,0.107,0.381,0.134c1.439,0.226,2.763-0.857,2.998-2.295l2.103-12.899c0,0,6.432,7.343,7.847,10.562
				c1.414,3.22-3.484,12.486-2.198,13.903c1.286,1.417,1.463,1.417,2.985,0.002s5.133-11.712,5.523-16.733
				c0.39-5.021-6.429-19.995-6.429-19.995L222.002,243.579z"/>
			<path style="fill:#E38680;" d="M194.192,414.408l2.03,18.127l0.281,10.342c0,0,8.17,2.156,13.64,2.707s12.854-0.489,13.915-2.615
				c1.061-2.127-12.039-10.722-12.617-11.406c-0.578-0.684-1.343-18.565-1.343-18.565L194.192,414.408z"/>
			<path style="fill:#3B2539;" d="M196.347,437.147c0,0-0.366,7.143,0.303,11.181c0.669,4.038,6.252,3.607,15.374,4.758
				c9.122,1.151,13.481,2.012,18.773,1.169c5.292-0.843,7.097-1.311,7.558-4.96c0.46-3.649-18.357-11.26-18.357-11.26
				s-0.711,4.365-9.127,3.474S196.347,437.147,196.347,437.147z"/>
			<path style="fill:#E38680;" d="M142.337,416.088l-2.837,18.018l-0.742,10.319c0,0-8.258,1.79-13.747,2.096
				c-5.489,0.306-12.819-1.061-13.785-3.233c-0.965-2.172,12.505-10.175,13.113-10.832c0.608-0.657,2.169-18.487,2.169-18.487
				L142.337,416.088z"/>
			<path style="fill:#3B2539;" d="M139.17,438.708c0,0,0.047,7.152-0.802,11.156c-0.848,4.004-6.406,3.324-15.571,4.067
				c-9.164,0.743-13.557,1.409-18.806,0.331c-5.249-1.078-7.032-1.627-7.329-5.292c-0.297-3.666,18.841-10.43,18.841-10.43
				s0.516,4.392,8.963,3.878C132.913,441.903,139.17,438.708,139.17,438.708z"/>
			<path style="fill:#E38680;" d="M122.624,149.86l-9.531,22.972l6.229,24.156c0,0,18.99-24.737,20.521-33.133
				c1.531-8.397,0.358-14.471,0.358-14.471L122.624,149.86z"/>
			<g>
				<path style="fill:#3B2539;" d="M172.193,55.985c0,0-12.482-0.024-18.277,10.986c-5.93,11.267-14.712,62.275-7.676,68.308
					c8.376,7.181,26.606,7.141,34.776,11.022c19.28,9.158,31.18-17.618,18.867-67.925C197.071,66.888,191.408,54.672,172.193,55.985
					z"/>
			</g>
			<g>
				<g>
					<g>
						<path style="fill:#EAA940;" d="M223.131,157.019l-102.633-6.535c0,0,1.794-6.441,4.175-12.874
							c2.382-6.433,6.614-8.92,11.953-9.933c1.506-0.287,4.269-0.9,7.459-1.634c1.807-0.417,3.753-0.871,5.685-1.326
							c6.741-1.587,13.318-3.185,13.318-3.185l10.728-0.174l0.062,0l0.06,0.007l9.581,1.383c0,0,5.679,2.107,11.887,4.378
							c5.825,2.13,12.118,4.407,14.618,5.223c5.167,1.682,9.05,4.685,10.596,11.369
							C222.167,150.402,223.131,157.019,223.131,157.019z"/>
					</g>
					<g>
						<path style="fill:#E38680;" d="M195.406,127.128c-1.83,7.243-7.382,20.982-23.101,20.708
							c-17.43-0.305-21.596-17.021-22.536-23.119c6.741-1.587,13.318-3.185,13.318-3.185l10.728-0.174l0.062,0l0.06,0.007
							l9.581,1.383C183.519,122.749,189.198,124.856,195.406,127.128z"/>
					</g>
					<g>
						<g>
							<path style="fill:#F2EDFD;" d="M173.012,135.899c-6.947-0.442-10.723-4.201-12.667-7.277
								c-2.092-3.31-2.544-6.483-2.563-6.617c-0.053-0.387,0.218-0.744,0.606-0.797c0.388-0.053,0.744,0.218,0.797,0.606
								c0.009,0.062,0.451,3.059,2.384,6.096c2.572,4.04,6.452,6.253,11.532,6.576c5.077,0.323,8.986-1.393,11.62-5.102
								c1.98-2.788,2.462-5.686,2.466-5.715c0.062-0.386,0.428-0.648,0.811-0.587c0.386,0.062,0.649,0.425,0.587,0.811
								c-0.021,0.132-0.541,3.256-2.71,6.311C183.858,133.048,179.987,136.344,173.012,135.899z"/>
						</g>
					</g>
				</g>
				<g>
					<polygon style="fill:#5848BC;" points="173.938,121.357 173.938,121.366 173.878,121.359 					"/>
				</g>
				<g>
					<polygon style="fill:#5848BC;" points="173.878,121.359 173.817,121.358 173.817,121.349 					"/>
				</g>
			</g>
			<g>
				<g>
					<g>
						<path style="fill:#E38680;" d="M182.538,123.3c0,0-2.78,4.49-9.723,4.048c-6.708-0.427-9.222-5.486-9.222-5.486l0.623-3.317
							l0.105-0.558l0.98-5.223l16.567,1.52l0.15,2.02l0.049,0.662L182.538,123.3z"/>
					</g>
					<g>
						<path style="fill:#3B2539;" d="M182.018,116.303c-3.963,2.948-10.123,3.773-17.801,2.242l0.105-0.558l0.98-5.223l16.567,1.52
							L182.018,116.303z"/>
					</g>
				</g>
				<g>
					<g>
						<path style="fill:#D55B5D;" d="M159.941,98.665c-4.042,4.946-11.814,0.935-10.831-5.909c0.892-6.208,7.797-4.775,7.797-4.775
							L159.941,98.665z"/>
					</g>
					<g>
						<g>
							<path style="fill:#F2EDFD;" d="M157.757,99.257c2.595,1.255,4.311,3.993,4.117,7.042c-0.256,4.02-3.734,7.083-7.754,6.827
								c-4.02-0.256-7.081-3.735-6.825-7.755c0.216-3.396,2.731-6.106,5.931-6.712c0.48-0.092,0.977-0.136,1.484-0.126
								c0.065,0.244,0.104,0.492,0.109,0.749c-0.305-0.01-0.607-0.001-0.905,0.03c-3.13,0.319-5.67,2.865-5.876,6.106
								c-0.23,3.61,2.519,6.735,6.129,6.965c3.61,0.23,6.733-2.521,6.963-6.131c0.165-2.587-1.203-4.925-3.321-6.126L157.757,99.257
								z"/>
						</g>
					</g>
					<g>
						<path style="fill:#B33A41;" d="M156.515,98.58c-0.223-0.014-0.416-0.178-0.457-0.408c-0.537-3.005-3.426-5.95-3.455-5.979
							c-0.193-0.195-0.191-0.509,0.003-0.702c0.195-0.193,0.509-0.192,0.702,0.003c0.128,0.129,3.136,3.198,3.727,6.503
							c0.048,0.27-0.131,0.528-0.401,0.576C156.594,98.58,156.554,98.582,156.515,98.58z"/>
					</g>
					<g>
						<path style="fill:#B33A41;" d="M155.416,95.694c-0.052-0.003-0.105-0.015-0.156-0.036c-1.328-0.541-2.642-0.347-2.656-0.345
							c-0.27,0.042-0.524-0.144-0.566-0.414c-0.042-0.27,0.142-0.524,0.412-0.567c0.064-0.01,1.591-0.242,3.184,0.407
							c0.254,0.103,0.376,0.393,0.273,0.647C155.824,95.588,155.623,95.707,155.416,95.694z"/>
					</g>
				</g>
				<g>
					<g>
						<path style="fill:#D55B5D;" d="M187.43,100.415c3.382,5.419,11.6,2.426,11.493-4.487c-0.097-6.271-7.128-5.725-7.128-5.725
							L187.43,100.415z"/>
					</g>
					<g>
						<g>
							<path style="fill:#F2EDFD;" d="M190.421,101.337c-2.733,0.916-4.782,3.414-4.977,6.463c-0.256,4.02,2.805,7.499,6.825,7.755
								c4.02,0.256,7.498-2.807,7.754-6.827c0.216-3.396-1.934-6.403-5.032-7.41c-0.465-0.152-0.952-0.259-1.456-0.314
								c-0.096,0.234-0.166,0.475-0.203,0.729c0.304,0.028,0.603,0.076,0.894,0.145c3.064,0.713,5.261,3.561,5.054,6.802
								c-0.23,3.61-3.353,6.361-6.963,6.131c-3.61-0.23-6.359-3.355-6.129-6.965c0.165-2.587,1.818-4.733,4.071-5.655
								L190.421,101.337z"/>
						</g>
					</g>
					<g>
						<path style="fill:#B33A41;" d="M190.839,100.765c-0.039-0.002-0.078-0.01-0.117-0.022c-0.262-0.082-0.407-0.361-0.325-0.622
							c1.006-3.204,4.379-5.866,4.522-5.978c0.216-0.169,0.528-0.13,0.697,0.086c0.169,0.216,0.13,0.528-0.085,0.697
							c-0.033,0.025-3.274,2.587-4.186,5.493C191.274,100.641,191.061,100.779,190.839,100.765z"/>
					</g>
					<g>
						<path style="fill:#B33A41;" d="M192.295,98.042c-0.207-0.013-0.392-0.157-0.448-0.368c-0.07-0.265,0.087-0.537,0.352-0.607
							c1.662-0.441,3.148-0.018,3.21,0c0.263,0.077,0.414,0.353,0.337,0.616c-0.077,0.263-0.352,0.413-0.615,0.338
							c-0.02-0.006-1.296-0.361-2.678,0.006C192.401,98.04,192.347,98.045,192.295,98.042z"/>
					</g>
				</g>
				<g>
					<path style="fill:#E38680;" d="M155.91,80.311c0,0-2.529,11.128,1.47,22.424c3.625,10.238,9.093,13.705,15.116,14.184
						c6.85,0.544,21.461-2.507,21.261-35.188C193.621,59.649,159.139,58.233,155.91,80.311z"/>
				</g>
				<g>
					<g>
						<path style="fill:#3B2539;" d="M193.2,83.834c-9.284-0.351-15.61-3.244-19.61-6.044c1.549,2.443,4.339,4.113,4.339,4.113
							c-6.075,1.149-9.578-4.778-11.033-8.091c-4.854,6.608-11.403,9.491-11.403,9.491c-2.345-23.641,14.241-24.538,27.525-22.42
							C195.438,62.863,200.352,84.102,193.2,83.834z"/>
					</g>
					<g>
						<path style="fill:#3B2539;" d="M161.052,79.061c0,0-3.695,6.301-3.045,13.104c0.627,6.561-0.238,12.773-3.512,13.67
							c0,0,2.376-2.977,0.731-8.465c-1.645-5.487-1.72-12.632-0.19-15.835C156.566,78.333,161.052,79.061,161.052,79.061z"/>
					</g>
					<g>
						<path style="fill:#3B2539;" d="M189.294,80.859c0,0,2.866,6.719,1.359,13.384c-1.454,6.429-1.384,12.701,1.75,14.005
							c0,0-1.979-3.255,0.349-8.489c2.327-5.234,3.308-12.312,2.197-15.683C193.835,80.706,189.294,80.859,189.294,80.859z"/>
					</g>
				</g>
				<g>
					<path style="fill:#3B2539;" d="M161.952,86.414c0,0,2.86-3.487,7.417-3.673c0.741-0.03,1.353,0.575,1.351,1.317l0,0.012
						c-0.003,0.75-0.633,1.343-1.382,1.306C167.635,85.292,164.635,85.344,161.952,86.414z"/>
				</g>
				<g>
					<path style="fill:#3B2539;" d="M187.347,88.031c0,0-2.395-3.822-6.891-4.584c-0.731-0.124-1.415,0.399-1.507,1.135
						l-0.001,0.012c-0.093,0.745,0.457,1.413,1.205,1.471C181.852,86.197,184.821,86.629,187.347,88.031z"/>
				</g>
				<g>
					<path style="fill:#D55B5D;" d="M173.719,111.136c-1.413-0.09-2.497-0.654-2.569-0.692c-0.202-0.107-0.278-0.358-0.171-0.56
						c0.107-0.201,0.357-0.278,0.559-0.171c0.035,0.018,2.507,1.29,4.63,0.079c0.199-0.113,0.451-0.044,0.564,0.154
						c0.113,0.198,0.044,0.451-0.154,0.564C175.608,111.064,174.6,111.192,173.719,111.136z"/>
				</g>
				<g>
					<path style="fill:#D55B5D;" d="M175.852,100.707c-0.011-0.001-0.022-0.002-0.033-0.003l-3.003-0.435
						c-0.226-0.033-0.383-0.243-0.35-0.469c0.033-0.226,0.247-0.384,0.469-0.35l2.511,0.364l-0.299-7.724
						c-0.009-0.228,0.169-0.421,0.398-0.429c0.226-0.009,0.42,0.169,0.429,0.397l0.318,8.221c0.005,0.123-0.045,0.241-0.137,0.323
						C176.072,100.677,175.962,100.715,175.852,100.707z"/>
				</g>
				<g>
					<path style="fill:#F2EDFD;" d="M167.702,103.494c3.675,0.815,7.444,1.308,12.564,0.623c0,0-0.782,5.378-6.789,5.019
						C168.368,108.832,167.702,103.494,167.702,103.494z"/>
				</g>
				<g>
					<path style="fill:#3B2539;" d="M168.16,91.602c-0.091,1.432-0.816,2.551-1.618,2.5c-0.803-0.051-1.379-1.253-1.288-2.685
						c0.091-1.432,0.816-2.551,1.618-2.5C167.674,88.969,168.251,90.171,168.16,91.602z"/>
				</g>
				<g>
					<path style="fill:#3B2539;" d="M183.619,92.587c-0.091,1.432-0.816,2.551-1.618,2.5c-0.803-0.051-1.379-1.253-1.288-2.685
						c0.091-1.432,0.816-2.551,1.618-2.5C183.134,89.953,183.71,91.155,183.619,92.587z"/>
				</g>
				<g>
					<g>
						<path style="fill:#D55B5D;" d="M162.51,96.581c-0.016,0.246-0.228,0.433-0.474,0.417s-0.433-0.228-0.417-0.474
							c0.016-0.246,0.228-0.433,0.474-0.417C162.339,96.122,162.525,96.334,162.51,96.581z"/>
					</g>
					<g>
						<path style="fill:#D55B5D;" d="M164.618,97.795c-0.016,0.246-0.228,0.433-0.474,0.417c-0.246-0.016-0.433-0.228-0.417-0.474
							c0.016-0.246,0.228-0.433,0.474-0.417S164.633,97.549,164.618,97.795z"/>
					</g>
					<g>
						<path style="fill:#D55B5D;" d="M162.342,99.206c-0.016,0.246-0.228,0.433-0.474,0.417c-0.246-0.016-0.433-0.228-0.417-0.474
							c0.016-0.246,0.228-0.433,0.474-0.417S162.358,98.96,162.342,99.206z"/>
					</g>
					<g>
						<path style="fill:#D55B5D;" d="M165.736,99.87c-0.016,0.246-0.228,0.433-0.474,0.417c-0.246-0.016-0.433-0.228-0.417-0.474
							c0.016-0.246,0.228-0.433,0.474-0.417C165.564,99.411,165.751,99.624,165.736,99.87z"/>
					</g>
					<g>
						<path style="fill:#D55B5D;" d="M168.044,99.569c-0.016,0.246-0.228,0.433-0.474,0.417c-0.246-0.016-0.433-0.228-0.417-0.474
							c0.016-0.246,0.228-0.433,0.474-0.417C167.873,99.111,168.06,99.323,168.044,99.569z"/>
					</g>
					<g>
						<path style="fill:#D55B5D;" d="M167.146,97.323c-0.016,0.246-0.228,0.433-0.474,0.417c-0.246-0.016-0.433-0.228-0.417-0.474
							c0.016-0.246,0.228-0.433,0.474-0.417C166.975,96.865,167.162,97.077,167.146,97.323z"/>
					</g>
				</g>
				<g>
					<g>
						<path style="fill:#D55B5D;" d="M186.557,98.112c-0.016,0.246,0.171,0.458,0.417,0.474s0.458-0.171,0.474-0.417
							c0.016-0.246-0.171-0.458-0.417-0.474C186.785,97.679,186.572,97.866,186.557,98.112z"/>
					</g>
					<g>
						<path style="fill:#D55B5D;" d="M184.312,99.049c-0.016,0.246,0.171,0.458,0.417,0.474s0.458-0.171,0.474-0.417
							c0.016-0.246-0.171-0.458-0.417-0.474C184.54,98.616,184.328,98.803,184.312,99.049z"/>
					</g>
					<g>
						<path style="fill:#D55B5D;" d="M186.39,100.738c-0.016,0.246,0.171,0.458,0.417,0.474c0.246,0.016,0.458-0.171,0.474-0.417
							c0.016-0.246-0.171-0.458-0.417-0.474S186.405,100.491,186.39,100.738z"/>
					</g>
					<g>
						<path style="fill:#D55B5D;" d="M182.94,100.965c-0.016,0.246,0.171,0.458,0.417,0.474c0.246,0.016,0.458-0.171,0.474-0.417
							c0.016-0.246-0.171-0.458-0.417-0.474C183.168,100.532,182.955,100.719,182.94,100.965z"/>
					</g>
					<g>
						<path style="fill:#D55B5D;" d="M180.688,100.374c-0.016,0.246,0.171,0.459,0.417,0.474c0.246,0.016,0.458-0.171,0.474-0.417
							c0.016-0.246-0.171-0.458-0.417-0.474C180.916,99.941,180.704,100.128,180.688,100.374z"/>
					</g>
					<g>
						<path style="fill:#D55B5D;" d="M181.863,98.26c-0.016,0.246,0.171,0.459,0.417,0.474c0.246,0.016,0.458-0.171,0.474-0.417
							c0.016-0.246-0.171-0.458-0.417-0.474S181.879,98.014,181.863,98.26z"/>
					</g>
				</g>
			</g>
			<path style="fill:#EAA940;" d="M133.009,143.668l4.15,55.735l-3.274,41.424c0,0,9.238,3.707,38.104,4.243
				s38.438-3.242,38.438-3.242l-6.2-46.884l10.216-48.225l-24.865,3.33C189.58,150.048,146.027,153.429,133.009,143.668z"/>
			<path style="fill:#3B2539;" d="M135.837,216.146c0,0,37.146,6.027,71.289,0.705c0,0,4.93,20.096,6.393,41.603
				c1.463,21.508,1.874,164.12,1.874,164.12l-24.437,4.02l-18.909-156.9l-4.454-2.078l-23.281,157.892l-25.225-0.741
				c0,0,2.784-140.52,5.276-162.135C126.856,241.018,135.837,216.146,135.837,216.146z"/>
			<path style="fill:#E38680;" d="M101.31,118.815c-1.39,1.392-3.278,4.325-4.769,6.817l-6.798-4.547l0.004-0.005
				c-0.363-0.262-1.136-0.777-2.142-1.425l-0.002-0.001v0c-3.368-2.17-9.37-5.838-11.548-6.568
				c-2.828-0.948-2.776,1.504-1.311,2.427c1.13,0.712,7.824,6.057,10.825,8.463l-0.073,0.155c-3.04-2-10.096-6.381-12.498-7.186
				c-2.828-0.948-2.775,1.504-1.311,2.427c1.265,0.797,9.504,7.401,11.725,9.185l-0.056,0.118
				c-3.301-2.138-9.599-6.006-11.841-6.757c-2.828-0.948-2.776,1.504-1.311,2.427c0.967,0.609,6.008,4.611,9.324,7.261
				c-3.076-1.572-6.684-3.298-8.213-3.678c-2.654-0.659-2.426,1.578-1.02,2.314c0.963,0.504,6.203,4.023,9.41,6.192l9.027,6.528
				l1.762,6.84l13.91-4.453l-2.326-7.691l-0.544-8.25c0.607-2.675,1.481-6.315,2.068-7.861
				C104.584,118.963,103.979,116.141,101.31,118.815z"/>
			<g>
				<path style="fill:#D55B5D;" d="M82.383,134.283c0.048-0.036,0.087-0.084,0.114-0.142l5.474-11.729
					c0.088-0.189,0.007-0.414-0.182-0.501c-0.189-0.089-0.414-0.008-0.502,0.182l-5.474,11.729
					c-0.088,0.189-0.007,0.414,0.182,0.502C82.127,134.385,82.275,134.365,82.383,134.283z"/>
			</g>
			<g>
				<path style="fill:#D55B5D;" d="M95.302,133.424c0.133-0.1,0.188-0.281,0.122-0.443c-1.184-2.932,0.318-5.943,0.334-5.973
					c0.094-0.186,0.021-0.413-0.165-0.507c-0.186-0.095-0.413-0.022-0.508,0.164c-0.069,0.135-1.678,3.342-0.362,6.6
					c0.078,0.193,0.298,0.287,0.491,0.208C95.247,133.461,95.276,133.444,95.302,133.424z"/>
			</g>
			<path style="fill:#E38680;" d="M89.773,146.763c0,0,9.356,39.207,13.073,45.316c3.717,6.108,8.04,7.046,12.286,6.821
				c4.246-0.225,8.096-5.501,7.43-10.243c-0.666-4.742-18.632-45.391-18.632-45.391S91.48,143.782,89.773,146.763z"/>
		</g>
		<g>
			<path style="fill:#E38680;" d="M548.677,410.951c0,0,0.213,7.436-0.745,13.08c-0.958,5.644-9.478,13.256-9.478,13.256
				l10.244,5.274l14.782-5.751v-24.92L548.677,410.951z"/>
			<path style="fill:#3B2539;" d="M541.755,432.524c0,0-4.313,5.431-9.025,8.386s-4.952,5.431-4.872,6.629
				c0.08,1.198,4.073,2.955,12.38,2.795c8.307-0.16,10.942-1.917,14.616-2.636c3.674-0.719,8.147-2.396,9.345-3.035
				c1.198-0.639-0.719-13.498-0.719-13.498s-3.275,4.313-8.786,5.99c-5.511,1.677-2.476-2.316-2.236-4.233
				c0.24-1.917-8.466-3.514-9.505-3.434C541.915,429.569,541.755,432.524,541.755,432.524z"/>
			<path style="fill:#E38680;" d="M621.959,410.951c0,0-0.213,7.436,0.746,13.08c0.958,5.644,9.478,13.256,9.478,13.256
				l-10.244,5.274l-14.783-5.751v-24.92L621.959,410.951z"/>
			<path style="fill:#3B2539;" d="M628.881,432.524c0,0,4.313,5.431,9.025,8.386s4.952,5.431,4.872,6.629
				c-0.08,1.198-4.073,2.955-12.38,2.795c-8.307-0.16-10.942-1.917-14.616-2.636c-3.674-0.719-8.147-2.396-9.345-3.035
				c-1.198-0.639,0.719-13.498,0.719-13.498s3.275,4.313,8.786,5.99c5.511,1.677,2.476-2.316,2.236-4.233
				c-0.24-1.917,8.466-3.514,9.505-3.434C628.722,429.569,628.881,432.524,628.881,432.524z"/>
			<path style="fill:#3B2539;" d="M541.648,213.183c0,0-0.29,64.985,0,87.575s-0.129,115.919-0.129,115.919l29.38,3.258
				l8.689-179.997l3.475-2.027l18.005,185.979l27.61-6.126L614.289,222.23L541.648,213.183z"/>
			<path style="fill:#DD504F;" d="M544.255,133.938l-5.832,82.834c-0.29,4.119,3.021,7.596,7.149,7.508l65.815-1.397
				c4.479-0.095,7.889-4.047,7.328-8.492l-10.164-80.454H544.255z"/>
			<g>
				<path style="fill:#DD504F;" d="M619.765,140.772l-86.973-2.752c0,0,1.343-5.495,3.183-11c1.84-5.505,9.585-6.993,14.073-7.995
					c4.486-1.003,17.98-6.641,17.98-6.641l9.068-0.437l0.052-0.001l0.051,0.005l8.14,0.911c0,0,18.261,6.119,22.675,7.403
					c4.415,1.283,7.78,3.718,9.269,9.328C618.771,135.203,619.765,140.772,619.765,140.772z"/>
			</g>
			<g>
				<path style="fill:#F2EDFD;" d="M577.237,124.893c-0.018,0.566-0.492,1.011-1.058,0.993s-1.011-0.492-0.993-1.058
					c0.018-0.566,0.491-1.011,1.058-0.993C576.811,123.853,577.255,124.327,577.237,124.893z"/>
			</g>
			<g>
				<path style="fill:#F2EDFD;" d="M577.065,130.332c-0.018,0.566-0.491,1.011-1.058,0.993c-0.566-0.018-1.011-0.492-0.993-1.058
					c0.018-0.566,0.491-1.011,1.058-0.993C576.639,129.292,577.083,129.765,577.065,130.332z"/>
			</g>
			<g>
				<path style="fill:#F2EDFD;" d="M576.893,135.77c-0.018,0.566-0.492,1.011-1.058,0.993c-0.566-0.018-1.011-0.492-0.993-1.058
					c0.018-0.566,0.492-1.011,1.058-0.993C576.467,134.73,576.911,135.204,576.893,135.77z"/>
			</g>
			<g>
				<polygon style="fill:#5848BC;" points="577.198,111.943 577.198,111.95 577.148,111.946 				"/>
			</g>
			<g>
				<polygon style="fill:#5848BC;" points="577.148,111.946 577.095,111.947 577.096,111.94 				"/>
			</g>
			<g>
				<g>
					<g>
						<path style="fill:#E38680;" d="M585.123,115.075c0,0-2.385,4.142-8.678,3.943c-6.08-0.192-8.501-4.696-8.501-4.696
							l0.468-3.019l0.079-0.508l0.735-4.753l15.03,0.896l0.194,1.823l0.064,0.597L585.123,115.075z"/>
					</g>
					<g>
						<path style="fill:#A7255B;" d="M568.491,110.795c0,0-5.391,0.735-9.459,4.052c0,0,0.944,6.811,8.46,13.758l8.953-9.588
							C576.445,119.018,570.736,116.641,568.491,110.795z"/>
					</g>
					<g>
						<path style="fill:#A7255B;" d="M584.685,111.308c0,0,5.333,1.074,9.183,4.642c0,0-1.373,6.738-9.313,13.196l-8.328-10.135
							C576.226,119.011,582.074,117,584.685,111.308z"/>
					</g>
					<g>
						<path style="fill:#3B2539;" d="M584.45,108.761c-3.5,2.781-9.048,3.706-16.038,2.542l0.079-0.508l0.735-4.753l15.03,0.896
							L584.45,108.761z"/>
					</g>
				</g>
				<g>
					<g>
						<path style="fill:#D55B5D;" d="M563.97,93.444c-3.513,4.591-10.66,1.187-9.969-5.032c0.627-5.642,6.915-4.545,6.915-4.545
							L563.97,93.444z"/>
					</g>
					<g>
						<path style="fill:#B33A41;" d="M560.868,93.466c-0.202-0.006-0.381-0.149-0.425-0.356c-0.572-2.697-3.271-5.283-3.298-5.309
							c-0.18-0.171-0.188-0.455-0.017-0.635c0.171-0.18,0.455-0.188,0.635-0.017c0.119,0.113,2.929,2.802,3.56,5.775
							c0.051,0.243-0.104,0.481-0.346,0.533C560.94,93.464,560.904,93.467,560.868,93.466z"/>
					</g>
					<g>
						<path style="fill:#B33A41;" d="M559.791,90.887c-0.047-0.002-0.095-0.011-0.142-0.028c-1.217-0.451-2.4-0.238-2.412-0.236
							c-0.244,0.045-0.478-0.115-0.524-0.358c-0.046-0.243,0.113-0.478,0.357-0.525c0.058-0.011,1.432-0.265,2.892,0.276
							c0.233,0.086,0.352,0.345,0.265,0.577C560.157,90.78,559.978,90.893,559.791,90.887z"/>
					</g>
				</g>
				<g>
					<g>
						<path style="fill:#D55B5D;" d="M588.886,94.232c3.216,4.804,10.563,1.859,10.267-4.391c-0.269-5.67-6.614-4.973-6.614-4.973
							L588.886,94.232z"/>
					</g>
					<g>
						<path style="fill:#B33A41;" d="M591.98,94.45c-0.035-0.001-0.071-0.007-0.107-0.016c-0.239-0.067-0.379-0.314-0.312-0.553
							c0.817-2.927,3.791-5.433,3.918-5.538c0.191-0.159,0.474-0.133,0.633,0.057c0.159,0.19,0.133,0.474-0.057,0.633
							c-0.029,0.024-2.887,2.435-3.628,5.09C592.37,94.325,592.182,94.457,591.98,94.45z"/>
					</g>
					<g>
						<path style="fill:#B33A41;" d="M593.219,91.945c-0.188-0.006-0.359-0.13-0.416-0.32c-0.071-0.238,0.064-0.488,0.301-0.559
							c1.491-0.447,2.847-0.107,2.904-0.092c0.24,0.062,0.385,0.307,0.323,0.547c-0.062,0.24-0.307,0.384-0.546,0.323
							c-0.018-0.005-1.183-0.289-2.422,0.083C593.315,91.94,593.266,91.946,593.219,91.945z"/>
					</g>
				</g>
				<g>
					<path style="fill:#E38680;" d="M559.793,76.958c0,0-1.966,10.14,1.978,20.242c3.575,9.157,8.622,12.135,14.084,12.393
						c6.212,0.294,19.341-2.888,18.215-32.445C593.309,57.177,562.075,56.893,559.793,76.958z"/>
				</g>
				<g style="opacity:0.5;">
					<path style="fill:#D55B5D;" d="M570.888,93.601c-0.035,1.1-1.997,1.93-4.382,1.854c-2.385-0.076-4.291-1.028-4.256-2.128
						c0.035-1.099,1.997-1.93,4.382-1.854C569.017,91.549,570.923,92.502,570.888,93.601z"/>
				</g>
				<g style="opacity:0.5;">
					
						<ellipse transform="matrix(0.0316 -0.9995 0.9995 0.0316 475.397 678.9749)" style="fill:#D55B5D;" cx="588.102" cy="94.146" rx="1.992" ry="4.321"/>
				</g>
				<g>
					<path style="fill:#3B2539;" d="M563.67,70.896c0,0,0.921,7.686-2.416,10.38l-0.2,6.312l-1.926,0.512
						c0,0-1.395-8.49-1.883-13.207c-0.945-9.137,7.629-10.021,7.629-10.021L563.67,70.896z"/>
				</g>
				<g>
					<path style="fill:#3B2539;" d="M590.431,71.743c0,0-1.405,7.613,1.755,10.512l-0.2,6.312l1.89,0.632
						c0,0,1.93-8.385,2.715-13.062c1.521-9.059-6.98-10.483-6.98-10.483L590.431,71.743z"/>
				</g>
				<g>
					<g>
						<path style="fill:#3C496B;" d="M576.784,104.659c-1.281-0.04-2.277-0.52-2.344-0.552c-0.186-0.091-0.262-0.315-0.171-0.501
							c0.091-0.186,0.315-0.262,0.501-0.171c0.032,0.016,2.305,1.095,4.19-0.063c0.176-0.108,0.407-0.053,0.515,0.123
							c0.108,0.176,0.053,0.407-0.123,0.515C578.49,104.539,577.582,104.684,576.784,104.659z"/>
					</g>
				</g>
				<g>
					<path style="fill:#D55B5D;" d="M578.422,94.831c-0.01,0-0.02-0.001-0.03-0.002l-2.729-0.307
						c-0.206-0.023-0.353-0.208-0.33-0.414c0.023-0.205,0.208-0.354,0.414-0.33l2.282,0.257l-0.494-6.979
						c-0.015-0.206,0.141-0.385,0.347-0.4c0.207-0.015,0.385,0.141,0.4,0.347l0.526,7.427c0.008,0.111-0.034,0.219-0.114,0.297
						C578.62,94.797,578.522,94.835,578.422,94.831z"/>
				</g>
				<g>
					<path style="fill:#F2EDFD;" d="M571.117,97.999c3.349,0.631,6.772,0.968,11.383,0.201c0,0-0.552,4.887-5.996,4.737
						C571.874,102.808,571.117,97.999,571.117,97.999z"/>
				</g>
				<g>
					<path style="fill:#3B2539;" d="M571.201,86.817c-0.041,1.298-0.664,2.331-1.392,2.308c-0.728-0.023-1.284-1.094-1.243-2.392
						c0.041-1.298,0.664-2.331,1.392-2.308C570.685,84.449,571.242,85.52,571.201,86.817z"/>
				</g>
				<g>
					<path style="fill:#3B2539;" d="M585.213,87.261c-0.041,1.298-0.664,2.331-1.392,2.308c-0.728-0.023-1.284-1.094-1.243-2.391
						c0.041-1.298,0.664-2.331,1.392-2.308C584.698,84.893,585.254,85.963,585.213,87.261z"/>
				</g>
				<g>
					<g>
						<path style="fill:#3B2539;" d="M567.709,81.556c0.941-0.468,2.31-1.039,3.63-1.189c0.709-0.081,1.175-0.776,0.955-1.455
							l-0.044-0.137c-0.158-0.49-0.63-0.81-1.144-0.772c-1.176,0.087-3.265,0.432-4.662,1.739c-0.303,0.283-0.418,0.714-0.306,1.113
							l0,0C566.327,81.53,567.082,81.867,567.709,81.556z"/>
					</g>
				</g>
				<g>
					<g>
						<path style="fill:#3B2539;" d="M586.433,82.148c-0.909-0.526-2.24-1.183-3.547-1.416c-0.702-0.125-1.123-0.849-0.861-1.512
							l0.053-0.134c0.189-0.479,0.68-0.768,1.19-0.698c1.168,0.161,3.231,0.637,4.542,2.03c0.284,0.302,0.372,0.739,0.235,1.13l0,0
							C587.814,82.21,587.039,82.499,586.433,82.148z"/>
					</g>
				</g>
			</g>
			<path style="fill:#E38680;" d="M517.422,158.845c0,0-13.207,17.812-14.076,24.98c-0.869,7.168,31.265,40.499,31.265,40.499
				l6.355-9.392l-16.864-31.101l10.208-12.17L517.422,158.845z"/>
			<path style="fill:#A7255B;" d="M519.306,153.632l-3.289,6.08c0,0,12.636,11.484,18.175,13.849l3.691-2.973L519.306,153.632z"/>
			<path style="fill:#DD504F;" d="M537.129,124.861l-17.947,24.337c-2.774,3.426-2.207,8.403,1.271,11.146l11.152,8.795
				c3.718,2.932,9.201,2.114,11.853-1.774c3.434-5.034,7.735-11.87,9.988-17.516C557.565,139.526,537.129,124.861,537.129,124.861z"
				/>
			<path style="fill:#A7255B;" d="M637.238,143.394l5.005,4.768c0,0-8.473,14.824-13.012,18.783l-4.429-1.688L637.238,143.394z"/>
			<path style="fill:#DD504F;" d="M611.403,121.53l24.584,17.607c3.696,2.403,4.693,7.311,2.232,10.993l-7.892,11.808
				c-2.631,3.937-8.099,4.851-11.821,1.972c-4.82-3.728-11.021-8.902-14.907-13.577C596.492,141.788,611.403,121.53,611.403,121.53z
				"/>
			<path style="fill:#E38680;" d="M559.018,219.463c-1.411-0.876-3.73-1.917-4.552-2.278c-0.013-0.027-0.021-0.057-0.035-0.082
				l-0.245-0.039c-0.008-0.003-0.02-0.009-0.02-0.009l-0.001,0.005l-13.198-2.129c0,0-8.927,6.428-6.355,9.392
				c2.33,2.685,11.607,6.091,13.334,6.708v0l0.001,0c0.179,0.064,0.277,0.098,0.277,0.098s0.005-0.006,0.006-0.008l3.321,1.062
				c0,0,1.617,3.646,3.029,3.5c1.412-0.146,0-4.916-1.526-5.864c-0.813-0.505-1.968-1.071-2.871-1.491
				c0.037-0.056,0.074-0.112,0.112-0.169l3.138,1.003c0,0,1.84,4.149,3.447,3.983c1.607-0.166,0-5.595-1.737-6.674
				c-0.814-0.506-1.929-1.065-2.886-1.518c0.031-0.054,0.062-0.108,0.092-0.163l3.043,0.973c0,0,1.84,4.149,3.447,3.983
				c1.607-0.166,0-5.595-1.737-6.674c-0.885-0.55-2.127-1.164-3.134-1.635c0.042-0.106,0.082-0.212,0.121-0.317l3.221,1.03
				c0,0,1.84,4.149,3.447,3.983C562.362,225.971,560.754,220.542,559.018,219.463z"/>
			<path style="fill:#E38680;" d="M626.291,158.495l16.175-36.449l11.438,4.42c0,0-4.302,31.046-6.611,37.363
				C642.844,176.001,621.865,174.106,626.291,158.495z"/>
			<path style="fill:#E38680;" d="M636.947,105.754c1.639,0.73,4.208,2.608,6.294,4.241l4.297-6.098l-0.005-0.003
				c0.223-0.342,0.712-1.034,1.356-1.915l0.001-0.002h0c2.156-2.951,6.064-8.04,7.678-9.375c2.097-1.734,2.856,0.371,1.911,1.636
				c-0.729,0.976-4.676,7.72-6.442,10.751l0.113,0.108c1.933-2.699,6.504-8.74,8.284-10.212c2.097-1.734,2.856,0.371,1.911,1.636
				c-0.816,1.093-5.665,9.414-6.972,11.661l0.086,0.083c2.109-2.902,6.203-8.258,7.866-9.632c2.097-1.734,2.856,0.371,1.911,1.636
				c-0.623,0.835-3.604,5.894-5.558,9.237c2.104-2.346,4.609-4.998,5.786-5.822c2.043-1.43,2.582,0.549,1.626,1.636
				c-0.655,0.744-3.962,5.458-5.982,8.354l-6.401,9.829l-1.703,6.269l-12.268-3.333l1.728-4.393l-2.24-7.201
				c-1.393-2.078-3.33-4.891-4.336-6.014C634.208,106.953,633.799,104.352,636.947,105.754z"/>
			<g>
				<path style="fill:#D55B5D;" d="M658.128,112.721c-0.052-0.015-0.102-0.042-0.144-0.083l-8.503-8.191
					c-0.137-0.132-0.141-0.35-0.009-0.487c0.132-0.137,0.35-0.142,0.487-0.009l8.503,8.191c0.137,0.132,0.141,0.35,0.009,0.487
					C658.379,112.724,658.246,112.755,658.128,112.721z"/>
			</g>
			<g>
				<path style="fill:#D55B5D;" d="M646.849,116.223c-0.146-0.042-0.252-0.177-0.249-0.337c0.047-2.884-2.218-4.955-2.242-4.975
					c-0.141-0.127-0.153-0.345-0.026-0.486c0.127-0.142,0.344-0.154,0.486-0.027c0.103,0.092,2.523,2.295,2.47,5.5
					c-0.003,0.19-0.16,0.341-0.35,0.338C646.907,116.235,646.877,116.231,646.849,116.223z"/>
			</g>
			<path style="fill:#3B2539;" d="M595.439,69.374c0,0,0.857-3.809-3.894-8.523c-4.752-4.714-7.88-7.95-17.314-5.607
				c-22.866,5.679-20.366,9.018-19.223,10.929c0,0-2.321,1.322-2.464,5.036c-0.143,3.714,13.212,4.5,18.659,2.929
				c5.448-1.571,6.733-2.429,6.733-2.429s-2.784,2.857-2.606,4.143c0.178,1.286,10.464-3.857,10.464-3.857s-1.727,2.428-0.578,2.857
				C586.365,75.28,594.656,74.755,595.439,69.374z"/>
		</g>
		<g>
			<path style="fill:#684868;" d="M347.869,174.708l13.967,11.926l-7.67-20.498C354.166,166.137,346.914,167.187,347.869,174.708z"
				/>
			<polygon style="fill:#965450;" points="279.075,363.387 288.687,428.413 301.503,428.413 306.62,363.387 			"/>
			<path style="fill:#965450;" d="M290.232,422.769l-11.157,14.59c0,0,4.634,2.746,11.157,2.06
				c6.522-0.687,12.187-4.806,12.187-4.806l-1.545-11.843H290.232z"/>
			<polygon style="fill:#965450;" points="335.796,363.387 332.122,429.88 319.342,430.835 308.189,358.558 			"/>
			<path style="fill:#965450;" d="M330.161,424.366l12.212,13.718c0,0-4.417,3.084-10.972,2.885
				c-6.555-0.199-12.511-3.885-12.511-3.885l0.658-11.925L330.161,424.366z"/>
			<path style="fill:#3B2539;" d="M318.987,435.236c0,0-1.459,10.677-0.969,12.639c0.491,1.962,9.443,2.943,15.207,2.943
				c5.764,0,9.075,0.981,14.717,0.736c5.641-0.245,10.302,0,11.283-2.821c0.981-2.821-19.867-13.498-19.867-13.498
				s-0.368,3.687-7.236,3.196C325.254,437.941,318.987,435.236,318.987,435.236z"/>
			<path style="fill:#3B2539;" d="M302.462,433.232c0,0,1.874,10.612,1.46,12.592c-0.414,1.98-9.322,3.309-15.081,3.533
				c-5.76,0.224-9.03,1.333-14.677,1.308c-5.647-0.026-10.294,0.401-11.384-2.38c-1.09-2.78,19.327-14.26,19.327-14.26
				s0.511,3.669,7.354,2.912C296.306,436.18,302.462,433.232,302.462,433.232z"/>
			<path style="fill:#FC6A5A;" d="M268.452,230.53c0,0-2.571,13.66,0,44.544c2.571,30.884,7.714,88.313,7.714,88.313h64.286
				c0,0,8.571-79.476,7.286-110.238c-1.286-30.762-1.714-37.619-1.714-37.619L268.452,230.53z"/>
			<path style="fill:#2A242D;" d="M303.77,47.723c0,0-0.824-2.532-4.004-1.943c-3.18,0.589-2.65,4.946-2.65,4.946
				s-1.413-0.648-2.414,0c-1.001,0.648-0.278,2.591-0.278,2.591s-2.617-0.471-3.731,1.413c-1.114,1.884,1.006,4.299,1.006,4.299
				s-1.59,0.059-1.649,1.649c-0.059,1.59,1.825,1.816,1.825,1.816s-0.875,0.954-0.733,2.247c0.142,1.293,1.734,2.768,1.734,2.768
				s18.018-0.118,24.319-1.472c6.301-1.354,5.653-5.152,5.358-6.197c-0.294-1.045-2.002-1.222-2.002-1.222s1.531-1.531,0.824-3.474
				c-0.707-1.943-3.415-0.942-3.415-0.942s0.824-2.944-0.942-4.063c-1.766-1.119-3.474-0.059-3.474-0.059s-0.412-2.355-1.472-2.709
				c-1.06-0.353-2.061,0.883-2.061,0.883s-0.294-2.944-2.179-3.062C305.948,45.073,304.594,45.485,303.77,47.723z"/>
			<g>
				<g>
					<path style="fill:#965450;" d="M319.121,123.637c-5.084-2.773-3.697-16.177-3.697-16.177l-7.614,0.491v-0.489l-0.815,0.244
						l-0.815-0.244v0.489l-7.614-0.491c0,0,1.387,13.404-3.697,16.177c-5.084,2.773-35.124,4.159-31.889,35.124h43.2h1.63h43.2
						C354.245,127.796,324.205,126.41,319.121,123.637z"/>
					<path style="fill:#76413B;" d="M297.5,120.179c6.082-0.906,12.159-1.842,18.232-2.806c-0.854-4.622-0.308-9.914-0.308-9.914
						l-7.614,0.491v-0.489l-0.815,0.244l-0.815-0.244v0.489l-7.614-0.491C298.567,107.459,299.37,115.248,297.5,120.179z"/>
				</g>
				<g>
					<path style="fill:#FC6A5A;" d="M319.388,123.132c-2.019-1.083-3.046-3.767-3.549-6.656c-2.813,0.628-5.859,0.974-9.043,0.974
						c-3.121,0-6.11-0.331-8.876-0.935c-0.505,2.875-1.532,5.539-3.542,6.617c-5.243,2.813-36.224,4.219-32.887,35.629h44.552h1.681
						h44.552C355.611,127.351,324.631,125.944,319.388,123.132z"/>
					<g style="opacity:0.9;">
						<defs>
							<path id="SVGID_1_" style="opacity:0.9;" d="M319.388,123.132c-2.019-1.083-3.046-3.767-3.549-6.656
								c-2.813,0.628-5.859,0.974-9.043,0.974c-3.121,0-6.11-0.331-8.876-0.935c-0.505,2.875-1.532,5.539-3.542,6.617
								c-5.243,2.813-36.224,4.219-32.887,35.629h44.552h1.681h44.552C355.611,127.351,324.631,125.944,319.388,123.132z"/>
						</defs>
						<clipPath id="SVGID_00000121987196078052823320000009246012269493547708_">
							<use xlink:href="#SVGID_1_"  style="overflow:visible;"/>
						</clipPath>
						<g style="clip-path:url(#SVGID_00000121987196078052823320000009246012269493547708_);">
							
								<line style="fill:none;stroke:#FDEDEE;stroke-width:3.0584;stroke-miterlimit:10;" x1="256.098" y1="120.688" x2="355.782" y2="120.688"/>
							
								<line style="fill:none;stroke:#FDEDEE;stroke-width:3.0584;stroke-miterlimit:10;" x1="256.098" y1="125.549" x2="355.782" y2="125.549"/>
							
								<line style="fill:none;stroke:#FDEDEE;stroke-width:3.0584;stroke-miterlimit:10;" x1="256.098" y1="130.409" x2="355.782" y2="130.409"/>
							
								<line style="fill:none;stroke:#FDEDEE;stroke-width:3.0584;stroke-miterlimit:10;" x1="256.098" y1="135.27" x2="355.782" y2="135.27"/>
							
								<line style="fill:none;stroke:#FDEDEE;stroke-width:3.0584;stroke-miterlimit:10;" x1="256.098" y1="140.13" x2="355.782" y2="140.13"/>
							
								<line style="fill:none;stroke:#FDEDEE;stroke-width:3.0584;stroke-miterlimit:10;" x1="256.098" y1="144.991" x2="355.782" y2="144.991"/>
							
								<line style="fill:none;stroke:#FDEDEE;stroke-width:3.0584;stroke-miterlimit:10;" x1="256.098" y1="149.851" x2="355.782" y2="149.851"/>
							
								<line style="fill:none;stroke:#FDEDEE;stroke-width:3.0584;stroke-miterlimit:10;" x1="256.098" y1="154.712" x2="355.782" y2="154.712"/>
						</g>
					</g>
				</g>
			</g>
			<g>
				<g>
					<path style="fill:#76413B;" d="M292.11,87.839c-1.498-4.647-5.045-3.571-5.377-3.459c-0.348,0.041-4.014,0.585-3.381,5.426
						c0.637,4.87,3.463,7.509,6.113,6.734C292.191,96.108,293.616,92.514,292.11,87.839z"/>
					<path style="fill:#76413B;" d="M322.018,87.839c1.498-4.647,5.045-3.571,5.377-3.459c0.348,0.041,4.014,0.585,3.381,5.426
						c-0.637,4.87-3.463,7.509-6.113,6.734C321.937,96.108,320.512,92.514,322.018,87.839z"/>
					<path style="fill:#965450;" d="M288.476,80.799c1.856-20.372,17.344-19.231,18.805-19.078
						c1.461-0.153,16.948-1.295,18.805,19.078c1.867,20.494-7.261,33.878-18.805,33.142
						C295.737,114.677,286.608,101.293,288.476,80.799z"/>
				</g>
				<g>
					<g>
						<path style="fill:#76413B;" d="M309.951,90.385c0.692,0.903,1.089,1.868,1.397,2.851c0.293,0.987,0.482,1.995,0.517,3.036
							l0.015,0.44l-0.187,0.157c-0.432,0.364-0.884,0.71-1.347,1.045c-0.475,0.324-0.945,0.651-1.474,0.922
							c0.252-0.539,0.562-1.02,0.868-1.506c0.318-0.475,0.647-0.938,0.996-1.383l-0.172,0.598c-0.386-0.967-0.619-1.967-0.747-2.988
							C309.705,92.533,309.681,91.49,309.951,90.385z"/>
					</g>
					<path style="fill:#FFFFFF;" d="M315.176,102.497c-3.687,3.584-9.933,3.386-14.664,0.191"/>
					<g>
						<path style="fill:#352C38;" d="M321.886,83.477l-2.703-0.905c-0.806-0.254-1.535-0.418-2.216-0.477
							c-0.682-0.06-1.349-0.044-2.118,0.161c-0.403,0.044-0.78,0.239-1.239,0.343c-0.449,0.136-0.874,0.347-1.437,0.473
							c0.115-0.526,0.321-1.023,0.59-1.494c0.317-0.427,0.635-0.895,1.113-1.21c0.872-0.723,2.142-1.089,3.33-0.964
							c1.197,0.107,2.27,0.638,3.073,1.356C321.073,81.491,321.683,82.39,321.886,83.477z"/>
					</g>
					<g>
						<path style="fill:#352C38;" d="M302.594,83.477l-2.703-0.905c-0.806-0.254-1.535-0.418-2.216-0.477
							c-0.682-0.06-1.349-0.044-2.118,0.161c-0.403,0.044-0.78,0.239-1.239,0.343c-0.449,0.136-0.874,0.347-1.437,0.473
							c0.115-0.526,0.321-1.023,0.59-1.494c0.317-0.427,0.635-0.895,1.113-1.21c0.872-0.723,2.142-1.089,3.33-0.964
							c1.197,0.107,2.27,0.638,3.073,1.356C301.78,81.491,302.391,82.39,302.594,83.477z"/>
					</g>
					<g>
						<path style="fill:#352C38;" d="M301.982,90.859c-0.346-0.849-0.742-1.639-1.288-2.202c-0.543-0.559-1.197-0.854-1.952-0.84
							c-0.771-0.031-1.44,0.174-1.923,0.739c-0.491,0.567-0.783,1.41-0.988,2.302c-0.283-0.877-0.293-1.899,0.218-2.828
							c0.248-0.468,0.68-0.853,1.171-1.107c0.504-0.221,1.04-0.309,1.55-0.3c1.039-0.017,2.15,0.584,2.662,1.47
							C301.978,88.955,302.121,89.946,301.982,90.859z"/>
					</g>
					<g>
						<path style="fill:#352C38;" d="M319.318,90.58c-0.346-0.849-0.742-1.639-1.288-2.202c-0.543-0.559-1.197-0.854-1.952-0.84
							c-0.771-0.031-1.44,0.174-1.923,0.739c-0.491,0.567-0.783,1.41-0.988,2.303c-0.283-0.877-0.293-1.899,0.218-2.828
							c0.248-0.468,0.68-0.853,1.171-1.107c0.504-0.221,1.04-0.309,1.55-0.3c1.039-0.017,2.15,0.584,2.663,1.47
							C319.314,88.676,319.457,89.666,319.318,90.58z"/>
					</g>
				</g>
				<g>
					<path style="fill:#352C38;" d="M307.88,61.722c0,0,0.957,12.488-17.983,17.719c0,0,0.541,6.313-1.082,12.266
						c0,0-6.133-8.839-3.247-19.301C288.454,61.944,303.077,53.563,307.88,61.722z"/>
					<path style="fill:#352C38;" d="M306.388,61.722c0,0-0.357,12.488,18.583,17.719c0,0-0.902,7.937,0.721,13.889
						c0,0,6.494-10.462,3.608-20.924C326.414,61.944,311.192,53.563,306.388,61.722z"/>
					<path style="fill:#2A242D;" d="M292.758,78.538c-2.763-1.926-5.223-4.407-6.871-7.145c-0.118,0.335-0.225,0.673-0.319,1.013
						c-2.886,10.462,3.247,19.301,3.247,19.301c1.623-5.953,1.082-12.266,1.082-12.266C290.91,79.161,291.856,78.856,292.758,78.538
						z"/>
				</g>
			</g>
			<path style="fill:#3B2539;" d="M352.516,156.262c0.275-11.271-5.002-24.577-16.027-29.44c-11.025-4.863-18.73-4.91-18.73-4.91
				l-9.266,31.53h-3.172l-9.266-31.53c0,0-7.706,0.047-18.73,4.91c-11.025,4.863-16.303,18.17-16.027,29.44
				c0.276,11.271,5.19,33.125,5.19,33.125l-3.739,46c12.153,2.965,33.774,2.319,44.158,1.787
				c10.385,0.533,32.006,1.178,44.158-1.787l-3.739-46C347.326,189.387,352.24,167.532,352.516,156.262z"/>
			<polygon style="fill:#965450;" points="260.61,184.768 270.185,227.706 286.031,274.25 300.355,269.735 286.186,215.835 
				279.41,179.895 			"/>
			<path style="fill:#965450;" d="M300.355,269.735l-14.862,2.006l1.653,20.319l1.457,6.556c0.227,1.021,1.224,1.678,2.252,1.482
				c0.974-0.186,1.651-1.077,1.567-2.065l-0.549-6.475l0.672-0.071l1.636,7.126c0.239,1.042,1.231,1.731,2.291,1.593
				c1.125-0.147,1.924-1.17,1.793-2.297L297.578,292l1.518,6.612c0.239,1.042,1.231,1.731,2.291,1.593
				c1.125-0.147,1.924-1.17,1.793-2.297l-0.867-7.459l0.048-0.005l1.456,6.992c0.2,0.96,1.144,1.573,2.102,1.366
				c0.813-0.176,1.392-0.895,1.392-1.726v-7.158L300.355,269.735z"/>
			<path style="fill:#684868;" d="M270.837,131.189c0,0-8.478,2.37-13.05,13.802c-4.572,11.432-0.857,34.391,1.143,47.054
				c2,12.663,24.286,77.691,24.286,77.691l16.271-3.302l-17.414-88.297C282.073,178.137,275.316,136.829,270.837,131.189z"/>
			<path style="fill:#965450;" d="M329.783,111.532c1.743,0.408,4.61,1.766,6.959,2.975l3.066-6.778l-0.005-0.002
				c0.155-0.377,0.504-1.146,0.97-2.13l0.001-0.002l0,0c1.56-3.294,4.434-9.012,5.765-10.622c1.729-2.091,2.867-0.172,2.179,1.245
				c-0.531,1.093-3.134,8.438-4.296,11.738l0.131,0.085c1.388-3.006,4.734-9.78,6.202-11.556c1.729-2.091,2.867-0.172,2.179,1.245
				c-0.594,1.224-3.786,10.283-4.645,12.729l0.1,0.065c1.523-3.238,4.53-9.251,5.901-10.909c1.729-2.091,2.867-0.172,2.179,1.245
				c-0.454,0.935-2.426,6.449-3.714,10.089c1.621-2.692,3.578-5.759,4.577-6.787c1.734-1.784,2.632,0.054,1.9,1.298
				c-0.502,0.852-2.859,6.089-4.294,9.304l-3.837,9.38l1.926,6.131l-12.885,3.243l-1.898-7.059l-3.544-6.634
				c-1.754-1.775-4.178-4.167-5.374-5.079C327.325,113.22,326.437,110.749,329.783,111.532z"/>
			<g>
				<path style="fill:#76413B;" d="M351.836,114.388c-0.054-0.005-0.108-0.022-0.156-0.054l-9.864-6.431
					c-0.159-0.104-0.204-0.316-0.1-0.475c0.103-0.159,0.316-0.205,0.475-0.1l9.864,6.431c0.159,0.104,0.204,0.316,0.1,0.475
					C352.083,114.344,351.959,114.399,351.836,114.388z"/>
			</g>
			<g>
				<path style="fill:#76413B;" d="M341.444,119.932c-0.151-0.014-0.28-0.127-0.307-0.283c-0.494-2.833-3.101-4.438-3.128-4.454
					c-0.162-0.098-0.214-0.309-0.117-0.471c0.098-0.163,0.308-0.215,0.471-0.117c0.118,0.071,2.901,1.775,3.45,4.924
					c0.033,0.187-0.092,0.365-0.28,0.397C341.504,119.933,341.473,119.934,341.444,119.932z"/>
			</g>
			<path style="fill:#E38680;" d="M340.14,133.517c0,0,6.454,26.235,10.23,31.532c3.775,5.297,7.76,5.862,11.597,5.378
				c3.837-0.484,6.983-5.525,6.065-9.784c-0.917-4.258-15.278-31.234-15.278-31.234S341.491,130.699,340.14,133.517z"/>
			<path style="fill:#684868;" d="M352.211,127.681c0,0-8.302,1.745-14.368,3.508c0,0,12.516,40.091,19.373,50.662
				c6.857,10.571,17.143,6,18.286,3.429c1.143-2.572,3.143-6,0-13.714C372.359,163.851,352.211,127.681,352.211,127.681z"/>
		</g>
		<g>
			<polygon style="fill:#965450;" points="407.394,422.137 407.394,432.565 422.965,432.565 423.822,422.137 			"/>
			<path style="fill:#3B2539;" d="M408.251,431.565c0,0-6.143,6-13.143,9.286s-9.428,4.857-10.428,8c-1,3.143,5,4.571,12.143,4.143
				c7.143-0.429,19.429-2.429,22.429-2.714c3-0.286,6-0.714,6.714-1.429s-2.87-17.87-2.87-17.87L408.251,431.565z"/>
			<polygon style="fill:#965450;" points="477.144,424.454 477.785,434.863 462.243,435.819 461.394,421.851 			"/>
			<path style="fill:#3B2539;" d="M476.868,433.917c0,0,6.5,5.611,13.689,8.461c7.189,2.85,9.709,4.269,10.9,7.344
				s-4.71,4.87-11.865,4.881c-7.156,0.011-19.541-1.23-22.553-1.331c-3.012-0.101-6.033-0.344-6.789-1.013
				c-0.757-0.669,1.766-18.012,1.766-18.012L476.868,433.917z"/>
			<polygon style="fill:#3B2539;" points="396.822,237.629 402.835,424.366 429.517,424.366 435.958,275.262 438.362,272.078 
				456.946,424.366 484.822,424.366 470.707,237.629 			"/>
			<g>
				<path style="fill:#965450;" d="M441.242,122.042c-4.973-2.427-4.228-15.283-4.228-15.283l-7.247,0.797l-0.021-0.467
					l-0.767,0.269l-0.788-0.198l0.021,0.467l-7.289-0.139c0,0,1.902,12.736-2.83,15.602c-4.733,2.867-33.349,5.488-28.923,34.906
					l41.237-1.866l1.555-0.07l41.237-1.866C474.951,124.495,446.215,124.469,441.242,122.042z"/>
				<path style="fill:#76413B;" d="M420.454,119.675c5.766-1.128,11.527-2.284,17.283-3.466c-1.015-4.375-0.722-9.45-0.722-9.45
					l-7.247,0.797l-0.021-0.467l-0.767,0.269l-0.788-0.198l0.021,0.467l-7.289-0.139
					C420.923,107.487,422.026,114.887,420.454,119.675z"/>
			</g>
			<g>
				<g>
					<path style="fill:#76413B;" d="M413.911,89.037c-1.631-4.371-4.97-3.191-5.282-3.07c-0.331,0.054-3.807,0.732-2.993,5.326
						c0.819,4.621,3.63,7.019,6.126,6.164C414.346,96.927,415.552,93.434,413.911,89.037z"/>
					<path style="fill:#76413B;" d="M442.462,87.745c1.229-4.501,4.661-3.627,4.983-3.534c0.334,0.024,3.857,0.385,3.462,5.034
						c-0.398,4.676-2.981,7.318-5.544,6.692C442.741,95.642,441.225,92.272,442.462,87.745z"/>
					<path style="fill:#965450;" d="M410.138,82.474c0.892-19.527,15.725-19.107,17.126-19.023
						c1.388-0.21,16.123-1.968,18.774,17.399c2.668,19.482-5.467,32.653-16.519,32.449
						C418.533,114.5,409.241,102.118,410.138,82.474z"/>
				</g>
				<g>
					<g>
						<path style="fill:#76413B;" d="M430.741,83.827c0.768,1.732,1.243,3.51,1.62,5.303c0.172,0.899,0.35,1.798,0.459,2.707
							c0.133,0.905,0.217,1.818,0.277,2.735l0.03,0.454l-0.286,0.18c-0.581,0.365-1.178,0.71-1.785,1.041
							c-0.617,0.318-1.229,0.642-1.891,0.9c0.43-0.566,0.909-1.066,1.385-1.571c0.485-0.492,0.98-0.972,1.491-1.43l-0.256,0.633
							c-0.223-0.891-0.423-1.786-0.573-2.689c-0.174-0.899-0.28-1.809-0.391-2.717C430.632,87.549,430.54,85.711,430.741,83.827z"/>
					</g>
					<path style="fill:#FFFFFF;" d="M436.486,100.316c-3.365,3.581-9.336,3.661-13.99,0.816"/>
					<g>
						<path style="fill:#352C38;" d="M442.069,81.869l-2.642-0.706c-0.78-0.198-1.475-0.315-2.117-0.341
							c-0.642-0.027-1.266,0.009-1.989,0.227c-0.382,0.053-0.735,0.25-1.172,0.362c-0.427,0.142-0.828,0.356-1.371,0.492
							c0.077-0.516,0.247-1.005,0.479-1.473c0.281-0.428,0.563-0.894,1.006-1.222c0.803-0.739,2.012-1.152,3.163-1.083
							c1.158,0.051,2.214,0.519,3.012,1.18C441.229,79.979,441.846,80.823,442.069,81.869z"/>
					</g>
					<g>
						<path style="fill:#352C38;" d="M423.653,82.703l-2.642-0.706c-0.78-0.198-1.475-0.315-2.117-0.341
							c-0.642-0.027-1.266,0.009-1.989,0.227c-0.382,0.053-0.735,0.25-1.172,0.362c-0.427,0.142-0.828,0.356-1.371,0.492
							c0.077-0.516,0.247-1.005,0.479-1.473c0.281-0.428,0.562-0.894,1.006-1.223c0.803-0.739,2.012-1.152,3.163-1.082
							c1.158,0.051,2.214,0.519,3.012,1.18C422.813,80.812,423.43,81.657,423.653,82.703z"/>
					</g>
					<g>
						<path style="fill:#352C38;" d="M423.388,89.776c-0.378-0.794-0.795-1.526-1.341-2.033c-0.543-0.503-1.169-0.75-1.883-0.704
							c-0.732,0.004-1.35,0.222-1.787,0.773c-0.444,0.554-0.693,1.368-0.862,2.23c-0.319-0.824-0.379-1.803,0.068-2.72
							c0.216-0.461,0.616-0.852,1.076-1.119c0.475-0.235,0.987-0.344,1.477-0.358c0.997-0.062,2.094,0.471,2.622,1.301
							C423.318,87.952,423.492,88.896,423.388,89.776z"/>
					</g>
					<g>
						<path style="fill:#352C38;" d="M439.925,88.761c-0.378-0.794-0.795-1.526-1.341-2.033c-0.543-0.503-1.169-0.75-1.883-0.704
							c-0.732,0.004-1.35,0.222-1.787,0.773c-0.444,0.554-0.693,1.368-0.862,2.23c-0.319-0.824-0.379-1.803,0.068-2.72
							c0.216-0.462,0.616-0.852,1.076-1.119c0.476-0.235,0.987-0.343,1.478-0.358c0.997-0.062,2.094,0.471,2.622,1.301
							C439.855,86.936,440.029,87.881,439.925,88.761z"/>
					</g>
				</g>
				<g>
					<path style="fill:#FDDEC0;" d="M446.129,65.821c-1.178-3.944-3.603-4.845-4.755-5.048
						c-1.122-10.246-28.668-10.887-28.936-8.906c-0.286,2.115,9.976,5.09,9.976,5.09s-18.333-3.948-17.19,0.205
						c0.929,3.373,8.23,2.675,10.938,2.294c-3.802,0.65-16.779,3.341-10.62,8.967c0.504,0.46,1.046,0.847,1.614,1.181
						c-0.218,7.33,2.727,24.421,2.727,24.421l1.525-0.069l-1.107-11.798c2.93-0.725,3.964-7.791,4.282-10.934
						c5.008-0.155,9.96-2.082,11.79-2.87c-1.098,0.573-2.814,1.848-0.798,3.557c2.058,1.745,9.041-0.81,12.538-2.259
						c0.78,2.756,3.235,10.473,6.393,10.957l-0.037,11.85l1.525-0.069C445.994,92.39,447.706,71.101,446.129,65.821z"/>
					<path style="fill:#D3B9A3;" d="M446.129,65.821c-1.178-3.944-3.603-4.845-4.755-5.048c-0.205-1.873-1.296-3.424-2.939-4.697
						c-0.539,7.007-5.371,13.163-11.714,16.324c2.816,0.551,8.387-1.503,11.391-2.747c0.78,2.756,3.235,10.473,6.393,10.957
						l-0.037,11.85l1.525-0.069C445.994,92.39,447.706,71.101,446.129,65.821z"/>
				</g>
			</g>
			<path style="fill:#E69848;" d="M473.957,154.158c1.403-23.807-16.435-28.882-26.555-31.172
				c-2.297,6.916-9.008,12.092-17.152,12.46c-8.144,0.369-15.296-4.18-18.208-10.86c-9.871,3.194-27.178,9.86-23.631,33.443
				l5.41,52.25v31.143h77.571C471.393,241.423,474.695,164.392,473.957,154.158z"/>
			<polygon style="fill:#965450;" points="376.752,147.574 357.893,187.246 374.831,196.726 396.822,163.023 			"/>
			<path style="fill:#965450;" d="M374.045,188.693l19.383,39.029l-10.74,7.42c0,0-24.621-30.586-25.931-38.256
				c-1.31-7.67,4.713-17.168,4.713-17.168L374.045,188.693z"/>
			<path style="fill:#965450;" d="M392.682,226.217c0,0,3.192,5.87,3.803,9.275c0.432,2.406-1.273,8.606-2.31,12.036
				c-0.423,1.401-1.733,2.339-3.196,2.292l-8.465-0.271c0,0-1.397-5.326-0.436-8.469c0.96-3.143,0.96-3.143,0.96-3.143l-0.758-3.305
				L392.682,226.217z"/>
			<path style="fill:#965450;" d="M388.103,247.324c0,0-3.143,5.042-4.06,5.828c-0.917,0.786-6.876-0.917-6.941-2.423
				c-0.065-1.506,4.64-0.829,4.64-0.829l1.45-1.79L388.103,247.324z"/>
			<path style="fill:#965450;" d="M391.443,246.996c0,0-2.881,4.846-3.995,5.894c-1.113,1.048-4.191-1.375-4.191-1.375l2.881-3.078
				L391.443,246.996z"/>
			<path style="fill:#965450;" d="M394.258,245.097c0,0-1.179,3.733-2.554,5.763c-1.375,2.03-4.355,0-4.355,0l3.454-4.584
				L394.258,245.097z"/>
			<path style="fill:#E69848;" d="M404.031,127.681c0,0-8.201-0.583-14.884,3.508c-6.682,4.091-19.495,25.091-19.495,25.091
				l18.289,20.355l10.382-15.212L404.031,127.681z"/>
			<path style="fill:#965450;" d="M477.753,124.415l25.371-1.46l21.206,14.143c0,0-30.259,9.99-38.875,8.64
				c-8.616-1.35-14.081-4.527-14.081-4.527L477.753,124.415z"/>
			<path style="fill:#965450;" d="M457.612,89.079c1.949-0.492,5.511-0.616,8.478-0.622l-0.437-8.345l-0.006,0
				c-0.04-0.455-0.088-1.404-0.131-2.625l0-0.002l0,0c-0.143-4.091-0.225-11.279,0.273-13.572c0.646-2.978,2.772-1.65,2.816,0.118
				c0.034,1.364,1.226,10.035,1.769,13.928l0.174,0.017c-0.166-3.715-0.322-12.2,0.227-14.729c0.646-2.978,2.772-1.65,2.816,0.118
				c0.038,1.527,1.527,12.213,1.932,15.096l0.133,0.013c-0.151-4.016-0.253-11.567,0.259-13.928c0.646-2.978,2.772-1.65,2.816,0.118
				c0.029,1.167,0.906,7.686,1.499,11.982c0.228-3.523,0.599-7.592,1.066-9.133c0.809-2.674,2.654-1.304,2.565,0.315
				c-0.061,1.109,0.288,7.55,0.515,11.498l1.011,11.338l5.084,5.123l-11.183,9.883l-5.536-6.064l-6.958-4.791
				c-2.666-0.866-6.318-2.002-7.982-2.295C456.03,92.031,453.869,90.024,457.612,89.079z"/>
			<g>
				<path style="fill:#76413B;" d="M481.089,80.552c-0.056,0.023-0.119,0.033-0.184,0.026l-13.159-1.328
					c-0.212-0.021-0.367-0.21-0.345-0.422c0.021-0.212,0.209-0.367,0.422-0.345l13.159,1.328c0.212,0.021,0.367,0.21,0.345,0.422
					C481.312,80.381,481.217,80.5,481.089,80.552z"/>
			</g>
			<g>
				<path style="fill:#76413B;" d="M473.579,91.444c-0.158,0.064-0.345,0.018-0.453-0.124c-1.954-2.572-5.383-2.828-5.418-2.83
					c-0.212-0.014-0.373-0.198-0.359-0.41c0.014-0.213,0.197-0.374,0.409-0.36c0.155,0.01,3.811,0.274,5.983,3.133
					c0.129,0.17,0.096,0.411-0.074,0.54C473.64,91.415,473.61,91.432,473.579,91.444z"/>
			</g>
			<path style="fill:#965450;" d="M485.827,91.68c0,0,34.673,22.229,39.315,27.872c4.641,5.643,4.089,10.129,2.443,14.149
				c-1.647,4.02-8.033,5.958-12.383,3.719c-4.35-2.24-37.516-33.26-37.516-33.26S482.377,92.323,485.827,91.68z"/>
			<path style="fill:#E69848;" d="M450.938,123.854c0,0,3.099-1.859,12.742-2.717c9.643-0.857,22.5,0.974,22.5,0.974l5.632,26.24
				l-22.346,5.786L450.938,123.854z"/>
		</g>
	</g>
</g>
</svg>
